PathFileType	4	(X/Y/Z)	/Users/itak/Documents/Research/Walk-IL/dataset/trc/00006_00004.trc
DataRate	CameraRate	NumFrames	NumMarkers	Units	OrigDataRate	OrigDataStartFrame	OrigNumFrames
100.000000	100.000000	4	53	mm	100.000000	77	616
Frame#	Time	RPSI			LPSI			L3			STRN			T10			C7			CLAV			RBAK			LBAK			LSHO			LUPA			LAEL			LAOL			LWTS			LWPS			LFRA			LIFD			LHPS			LHTS			RSHO			RUPA			RAEL			RAOL			RWTS			RWPS			RFRA			RIFD			RHTS			RHPS			RBHD			LFHD			RFHD			LBHD			LHIP			RHIP			RASI			LASI			LKNE			LTHI			LANK			LTIP			LTOE			LMT1			LMT5			LHEE			RKNE			RTHI			RANK			RTIP			RTOE			RMT1			RMT5			RHEE			
		X1	Y1	Z1	X2	Y2	Z2	X3	Y3	Z3	X4	Y4	Z4	X5	Y5	Z5	X6	Y6	Z6	X7	Y7	Z7	X8	Y8	Z8	X9	Y9	Z9	X10	Y10	Z10	X11	Y11	Z11	X12	Y12	Z12	X13	Y13	Z13	X14	Y14	Z14	X15	Y15	Z15	X16	Y16	Z16	X17	Y17	Z17	X18	Y18	Z18	X19	Y19	Z19	X20	Y20	Z20	X21	Y21	Z21	X22	Y22	Z22	X23	Y23	Z23	X24	Y24	Z24	X25	Y25	Z25	X26	Y26	Z26	X27	Y27	Z27	X28	Y28	Z28	X29	Y29	Z29	X30	Y30	Z30	X31	Y31	Z31	X32	Y32	Z32	X33	Y33	Z33	X34	Y34	Z34	X35	Y35	Z35	X36	Y36	Z36	X37	Y37	Z37	X38	Y38	Z38	X39	Y39	Z39	X40	Y40	Z40	X41	Y41	Z41	X42	Y42	Z42	X43	Y43	Z43	X44	Y44	Z44	X45	Y45	Z45	X46	Y46	Z46	X47	Y47	Z47	X48	Y48	Z48	X49	Y49	Z49	X50	Y50	Z50	X51	Y51	Z51	X52	Y52	Z52	X53	Y53	Z53	

78	0.77	-1241.355224609375	1071.3759765625	-165.5330505371094	-1260.198120117188	1066.020141601562	-328.2262573242188	-1255.971069335938	1132.327758789062	-254.8609466552734	-1036.990966796875	1325.156982421875	-267.5520324707031	-1285.988037109375	1271.92431640625	-256.5432434082031	-1244.577392578125	1540.221557617188	-271.0834045410156	-1082.57177734375	1450.283935546875	-270.5092468261719	-1288.7080078125	1402.307495117188	-188.5658111572266	-1263.470458984375	1498.315795898438	-368.6038208007812	-1162.437133789062	1506.910522460938	-445.2389831542969	-1190.2861328125	1381.056030273438	-522.3161010742188	-1184.275146484375	1161.539428710938	-542.7793579101562	-1241.958862304688	1150.210327148438	-454.3065795898438	-1096.977172851562	909.78857421875	-480.628173828125	-1172.485717773438	894.5782470703125	-524.5695190429688	-1170.835083007812	1045.65625	-546.4371948242188	-1069.965698242188	727.423583984375	-457.3050842285156	-1139.314819335938	805.2874755859375	-521.6500244140625	-1072.131713867188	817.8634033203125	-492.0224304199219	-1160.045776367188	1529.02783203125	-98.82717895507812	-1168.416625976562	1455.904541015625	-25.58491897583008	-1193.390625	1185.04345703125	-5.003697395324707	-1202.157470703125	1158.955932617188	-101.5896453857422	-1064.428588867188	927.6934204101562	-47.5047607421875	-1124.9599609375	911.76318359375	20.25346374511719	-1177.590942382812	1109.766479492188	8.018185615539551	-1048.005126953125	749.0875854492188	-73.93144989013672	-1028.987426757812	818.0703125	-37.01950073242188	-1083.174438476562	812.0494384765625	15.19707870483398	-1190.734252929688	1728.25439453125	-340.0474548339844	-1005.859619140625	1734.187744140625	-223.2130126953125	-1009.124206542969	1731.99853515625	-321.46484375	-1179.243774414062	1726.680541992188	-195.8778381347656	-1175.912475585938	964.5623168945312	-445.4378967285156	-1117.947509765625	964.6585083007812	-76.541259765625	-1023.900207519531	994.9674682617188	-159.2445373535156	-1053.202758789062	1010.208068847656	-392.8517150878906	-1137.949584960938	517.7841796875	-399.270751953125	-1160.561889648438	654.5774536132812	-434.0630187988281	-1234.4619140625	40.71466827392578	-394.7137145996094	-1221.105834960938	289.3179321289062	-414.002197265625	-1013.480102539062	41.22213363647461	-333.6647644042969	-1072.7138671875	49.9516716003418	-316.1334838867188	-1109.838500976562	39.80856323242188	-416.3792114257812	-1302.566528320312	48.20072174072266	-339.7724609375	-1128.605224609375	527.3240966796875	-118.0878601074219	-1098.858154296875	796.4857788085938	-78.92647552490234	-1242.544677734375	48.21551513671875	-124.150032043457	-1155.959838867188	406.6113586425781	-114.1797485351562	-1014.882873535156	45.3127326965332	-182.1860809326172	-1079.756591796875	50.64561462402344	-208.3292541503906	-1092.577514648438	45.41449737548828	-111.9183731079102	-1302.567749023438	49.11234664916992	-165.2720794677734	
79	0.78	-1241.625366210938	1071.4892578125	-165.31201171875	-1260.408569335938	1066.071655273438	-328.0002746582031	-1256.208740234375	1132.536376953125	-254.5941467285156	-1036.853881835938	1325.046020507812	-267.3511047363281	-1285.92138671875	1272.1279296875	-256.2804260253906	-1244.183227539062	1540.370971679688	-270.7794189453125	-1082.35400390625	1450.197021484375	-270.2608642578125	-1288.4375	1402.51171875	-188.2552795410156	-1263.154541015625	1498.520629882812	-368.304443359375	-1162.13134765625	1506.933959960938	-444.9659729003906	-1190.111694335938	1381.158081054688	-522.0679931640625	-1184.2119140625	1161.660400390625	-542.5757446289062	-1242.026489257812	1150.318603515625	-454.1365966796875	-1097.118774414062	909.7988891601562	-480.4618835449219	-1172.619262695312	894.69140625	-524.4215698242188	-1170.828857421875	1045.764892578125	-546.24072265625	-1070.184814453125	727.4033203125	-457.1852111816406	-1139.4052734375	805.3778686523438	-521.498779296875	-1072.221923828125	817.8812255859375	-491.8919982910156	-1159.600341796875	1529.009033203125	-98.60396575927734	-1167.978515625	1455.935424804688	-25.31690406799316	-1193.232055664062	1185.07958984375	-4.781599521636963	-1202.15771484375	1159.0009765625	-101.4081802368164	-1064.520141601562	927.5973510742188	-47.37696838378906	-1125.112182617188	911.7167358398438	20.4108772277832	-1177.45068359375	1109.794311523438	8.244973182678223	-1048.338989257812	749.0130004882812	-73.82002258300781	-1029.366577148438	817.8737182617188	-36.90668869018555	-1083.40283203125	811.9540405273438	15.30673694610596	-1190.000366210938	1728.328857421875	-339.7563781738281	-1005.231506347656	1733.996459960938	-222.7825927734375	-1008.378784179688	1731.82666015625	-321.0514221191406	-1178.6123046875	1726.769409179688	-195.6293487548828	-1176.270751953125	964.6275634765625	-445.22998046875	-1118.0908203125	964.6204223632812	-76.359130859375	-1024.249389648438	994.8713989257812	-159.0623474121094	-1053.587890625	1010.168701171875	-392.6323547363281	-1138.01806640625	517.7897338867188	-399.1217346191406	-1160.76708984375	654.5902099609375	-433.9364624023438	-1234.39306640625	40.69394683837891	-394.6416320800781	-1221.156616210938	289.3403930664062	-413.9320068359375	-1013.45458984375	41.20335006713867	-333.6537780761719	-1072.723876953125	49.9434700012207	-316.1252136230469	-1109.82373046875	39.84464263916016	-416.3533630371094	-1302.595703125	48.25180435180664	-339.7499084472656	-1128.933471679688	527.3287963867188	-117.8955001831055	-1099.271118164062	796.4724731445312	-78.65126037597656	-1242.531616210938	48.15084075927734	-124.109619140625	-1156.267456054688	406.5701293945312	-114.0007553100586	-1014.895935058594	45.31759262084961	-182.1838531494141	-1079.767211914062	50.65024185180664	-208.3184509277344	-1092.587036132812	45.43306350708008	-111.8890762329102	-1302.608154296875	49.01320266723633	-165.2366790771484	
80	0.79	-1241.8984375	1071.593505859375	-165.1002960205078	-1260.631103515625	1066.139526367188	-327.8071899414062	-1256.452026367188	1132.740600585938	-254.3372039794922	-1036.734375	1324.93359375	-267.1366271972656	-1285.867919921875	1272.333740234375	-256.0197143554688	-1243.818725585938	1540.529907226562	-270.4832153320312	-1082.152465820312	1450.119384765625	-270.0179748535156	-1288.155029296875	1402.721313476562	-187.9381103515625	-1262.8359375	1498.715576171875	-368.0003967285156	-1161.8056640625	1506.95458984375	-444.6744079589844	-1189.961181640625	1381.25537109375	-521.8214721679688	-1184.168090820312	1161.77685546875	-542.3585815429688	-1242.101440429688	1150.42822265625	-453.9508666992188	-1097.281372070312	909.797119140625	-480.2906494140625	-1172.765747070312	894.798828125	-524.2538452148438	-1170.827392578125	1045.877563476562	-546.0267333984375	-1070.412109375	727.389404296875	-457.0497436523438	-1139.523681640625	805.4732666015625	-521.3245239257812	-1072.3515625	817.9004516601562	-491.7425537109375	-1159.173950195312	1528.995483398438	-98.37361145019531	-1167.5595703125	1455.968383789062	-25.05057716369629	-1193.056518554688	1185.117797851562	-4.546682834625244	-1202.146118164062	1159.042114257812	-101.2198791503906	-1064.602661132812	927.5004272460938	-47.21720504760742	-1125.26220703125	911.67822265625	20.59712600708008	-1177.318115234375	1109.828735351562	8.474122047424316	-1048.666015625	748.9318237304688	-73.67543029785156	-1029.7802734375	817.6640014648438	-36.73638534545898	-1083.617065429688	811.8637084960938	15.4716682434082	-1189.266723632812	1728.400512695312	-339.4615478515625	-1004.606262207031	1733.804565429688	-222.3620910644531	-1007.637023925781	1731.655883789062	-320.6366271972656	-1177.97802734375	1726.85009765625	-195.3620758056641	-1176.625732421875	964.686767578125	-445.02197265625	-1118.25341796875	964.5794067382812	-76.16663360595703	-1024.600830078125	994.7936401367188	-158.8780059814453	-1053.974731445312	1010.143798828125	-392.4209899902344	-1138.0673828125	517.7960205078125	-398.9771423339844	-1160.958862304688	654.6082763671875	-433.8080749511719	-1234.333862304688	40.68363189697266	-394.5737609863281	-1221.196411132812	289.3631896972656	-413.8583374023438	-1013.437255859375	41.19199752807617	-333.64599609375	-1072.736206054688	49.93285751342773	-316.1154174804688	-1109.807250976562	39.8802490234375	-416.3276977539062	-1302.62451171875	48.29805374145508	-339.7283935546875	-1129.215698242188	527.3477172851562	-117.7250289916992	-1099.695922851562	796.4595336914062	-78.36441040039062	-1242.519653320312	48.08754730224609	-124.0801239013672	-1156.55078125	406.5259094238281	-113.8238143920898	-1014.908630371094	45.32251739501953	-182.1813201904297	-1079.77685546875	50.65417861938477	-208.3085784912109	-1092.601318359375	45.45531845092773	-111.8585815429688	-1302.644409179688	48.91904067993164	-165.2063598632812	
81	0.8	-1242.165649414062	1071.686157226562	-164.8952331542969	-1260.87109375	1066.230834960938	-327.6378479003906	-1256.694580078125	1132.938598632812	-254.0892028808594	-1036.635498046875	1324.822509765625	-266.9120178222656	-1285.82421875	1272.5439453125	-255.7577056884766	-1243.485961914062	1540.697631835938	-270.2003784179688	-1081.956298828125	1450.056640625	-269.780029296875	-1287.877319335938	1402.932373046875	-187.6219329833984	-1262.517700195312	1498.89306640625	-367.6945190429688	-1161.46533203125	1506.979614257812	-444.3667297363281	-1189.832763671875	1381.349975585938	-521.57763671875	-1184.145629882812	1161.890258789062	-542.130615234375	-1242.171997070312	1150.543579101562	-453.7471008300781	-1097.461059570312	909.7891845703125	-480.1161193847656	-1172.92236328125	894.9002685546875	-524.0659790039062	-1170.83154296875	1045.993896484375	-545.7981567382812	-1070.652221679688	727.3817749023438	-456.8907165527344	-1139.671020507812	805.5731811523438	-521.1277465820312	-1072.528076171875	817.9260864257812	-491.5737609863281	-1158.765380859375	1528.992065429688	-98.13539886474609	-1167.166748046875	1456.00439453125	-24.78839874267578	-1192.870483398438	1185.160522460938	-4.299441814422607	-1202.121826171875	1159.083251953125	-101.0202026367188	-1064.673828125	927.4111328125	-47.02876281738281	-1125.39990234375	911.6519775390625	20.81585311889648	-1177.199096679688	1109.87060546875	8.705720901489258	-1048.984619140625	748.8468017578125	-73.49993896484375	-1030.209350585938	817.4572143554688	-36.51264572143555	-1083.8115234375	811.786376953125	15.69206619262695	-1188.544189453125	1728.484375	-339.1715087890625	-1003.986328125	1733.608520507812	-221.9527282714844	-1006.906311035156	1731.4853515625	-320.2216186523438	-1177.35107421875	1726.919311523438	-195.0745544433594	-1176.966918945312	964.7434692382812	-444.8121948242188	-1118.4306640625	964.5340576171875	-75.96428680419922	-1024.942138671875	994.7347412109375	-158.69580078125	-1054.357421875	1010.1376953125	-392.2225036621094	-1138.100830078125	517.8054809570312	-398.8377990722656	-1161.146606445312	654.6356201171875	-433.6784973144531	-1234.2900390625	40.68866348266602	-394.5141906738281	-1221.22509765625	289.3858032226562	-413.7810974121094	-1013.43408203125	41.19283676147461	-333.6426086425781	-1072.748779296875	49.92101287841797	-316.1049194335938	-1109.789184570312	39.91437530517578	-416.3027038574219	-1302.6513671875	48.33830642700195	-339.7086181640625	-1129.460693359375	527.3739013671875	-117.578971862793	-1100.107421875	796.440673828125	-78.09671020507812	-1242.510864257812	48.02655029296875	-124.0605392456055	-1156.809936523438	406.4790954589844	-113.6609878540039	-1014.920043945312	45.32714080810547	-182.1786041259766	-1079.785278320312	50.65743637084961	-208.2999877929688	-1092.618041992188	45.47758865356445	-111.8301010131836	-1302.677490234375	48.82876586914062	-165.1802520751953	
